<svg xmlns="http://www.w3.org/2000/svg" width="153.892" height="154.061" viewBox="0 0 153.892 154.061">
  <path id="Union_6" data-name="Union 6" d="M37.427,108.226l-23.9-4.194A4,4,0,0,1,11.3,97.365L15.923,92.4a54.781,54.781,0,0,1-6.53-7.842,54.082,54.082,0,0,1-5.071-9.212,53.634,53.634,0,0,1,0-42.223,54.082,54.082,0,0,1,5.071-9.212A55.083,55.083,0,0,1,43.916,1.1a56.272,56.272,0,0,1,22.169,0,55.025,55.025,0,0,1,34.522,22.811,53.586,53.586,0,0,1,0,60.647,54.7,54.7,0,0,1-5.885,7.19,6.116,6.116,0,1,1-9.133-7.808A41.559,41.559,0,0,0,97.778,54.464c0-23.274-19.19-42.209-42.778-42.209S12.222,31.19,12.222,54.464A41.5,41.5,0,0,0,24.1,83.63l5.239-5.618a4,4,0,0,1,6.808,1.763L42,103.322a4,4,0,0,1-3.866,4.966A4.089,4.089,0,0,1,37.427,108.226Z" transform="translate(81.726) rotate(49)"/>
</svg>