<svg xmlns="http://www.w3.org/2000/svg" width="153.892" height="154.061" viewBox="0 0 153.892 154.061">
  <path id="Union_7" data-name="Union 7" d="M43.916,107.186A55.026,55.026,0,0,1,9.393,84.375a54.082,54.082,0,0,1-5.071-9.212,53.634,53.634,0,0,1,0-42.223,54.082,54.082,0,0,1,5.071-9.212,54.781,54.781,0,0,1,6.53-7.842L11.3,10.923a4,4,0,0,1,2.235-6.667L37.427.062A4,4,0,0,1,42,4.966L36.15,28.513a4,4,0,0,1-6.808,1.763L24.1,24.658A41.5,41.5,0,0,0,12.222,53.825C12.222,77.1,31.412,96.034,55,96.034S97.778,77.1,97.778,53.825A41.559,41.559,0,0,0,85.589,24.345a6.121,6.121,0,1,1,9.133-7.808,54.7,54.7,0,0,1,5.885,7.19,53.586,53.586,0,0,1,0,60.647,55.083,55.083,0,0,1-34.522,22.811,56.272,56.272,0,0,1-22.169,0Z" transform="translate(153.892 71.043) rotate(131)"/>
</svg>