<svg xmlns="http://www.w3.org/2000/svg" xmlns:xlink="http://www.w3.org/1999/xlink" width="199" height="199" viewBox="0 0 199 199">
  <defs>
    <filter id="Union_8" x="50" y="32.999" width="123" height="139.001" filterUnits="userSpaceOnUse">
      <feOffset dx="15" dy="3" input="SourceAlpha"/>
      <feGaussianBlur stdDeviation="3" result="blur"/>
      <feFlood flood-opacity="0.161"/>
      <feComposite operator="in" in2="blur"/>
      <feComposite in="SourceGraphic"/>
    </filter>
  </defs>
  <g id="Ellipse_33" data-name="Ellipse 33" fill="#441b8a" stroke="#707070" stroke-width="1">
    <circle cx="99.5" cy="99.5" r="99.5" stroke="none"/>
    <circle cx="99.5" cy="99.5" r="99" fill="none"/>
  </g>
  <g transform="matrix(1, 0, 0, 1, 0, 0)" filter="url(#Union_8)">
    <g id="Union_8-2" data-name="Union 8" transform="translate(50 39)" fill="#fff">
      <path d="M 80.09011077880859 120.4995956420898 C 77.60458374023438 120.4995956420898 75.19366455078125 120.0129089355469 72.92432403564453 119.0530624389648 C 70.73213958740234 118.125846862793 68.76325988769531 116.7983551025391 67.07235717773438 115.1074447631836 C 65.38146209716797 113.4165496826172 64.053955078125 111.4476776123047 63.12673950195312 109.2554931640625 C 62.16689300537109 106.9861526489258 61.68019866943359 104.5752258300781 61.68019866943359 102.0897064208984 L 61.68019866943359 18.90990447998047 C 61.68019866943359 16.42436599731445 62.16689300537109 14.01339721679688 63.12675476074219 11.74396705627441 C 64.05397033691406 9.551690101623535 65.38147735595703 7.582705497741699 67.07237243652344 5.891689777374268 C 68.76327514648438 4.200674533843994 70.73217010498047 2.873074531555176 72.92433929443359 1.94578230381012 C 75.19369506835938 0.9858438372612 77.60459899902344 0.4991053342819214 80.09011077880859 0.4991053342819214 C 82.57561492919922 0.4991053342819214 84.98652648925781 0.9858438372612 87.25587463378906 1.94578230381012 C 89.44804382324219 2.873074531555176 91.41692352294922 4.200674533843994 93.10784912109375 5.891689777374268 C 94.79873657226562 7.582705497741699 96.12622833251953 9.551690101623535 97.05345916748047 11.74396705627441 C 98.0133056640625 14.01339721679688 98.5 16.42436599731445 98.5 18.90990447998047 L 98.5 102.0897064208984 C 98.5 104.5752258300781 98.0133056640625 106.9861526489258 97.05345916748047 109.2554931640625 C 96.12624359130859 111.4476776123047 94.79875183105469 113.4165496826172 93.10784912109375 115.1074447631836 C 91.41695404052734 116.7983551025391 89.44807434082031 118.125846862793 87.25588989257812 119.0530624389648 C 84.98655700683594 120.0129089355469 82.57563018798828 120.4995956420898 80.09011077880859 120.4995956420898 Z M 19.46699905395508 120.4995956420898 C 16.90624618530273 120.4995956420898 14.42233848571777 119.9981994628906 12.08430767059326 119.0093078613281 C 9.825799942016602 118.0540618896484 7.797338485717773 116.6864471435547 6.055276870727539 114.9444274902344 C 4.313230991363525 113.2024459838867 2.945569276809692 111.174072265625 1.990307688713074 108.9156723022461 C 1.001415371894836 106.5777816772461 0.5 104.0940628051758 0.5 101.5335083007812 L 0.5 19.46610450744629 C 0.5 16.90533638000488 1.001415371894836 14.42144393920898 1.990307688713074 12.08341312408447 C 2.945569276809692 9.82489013671875 4.313230991363525 7.796428203582764 6.055276870727539 6.05438232421875 C 7.797323226928711 4.312335968017578 9.825784683227539 2.944674491882324 12.08430767059326 1.989413022994995 C 14.42233848571777 1.000520706176758 16.90623092651367 0.4991053342819214 19.46699905395508 0.4991053342819214 C 22.02755355834961 0.4991053342819214 24.51127624511719 1.000520706176758 26.84916877746582 1.989413022994995 C 29.10756874084473 2.944674491882324 31.13593864440918 4.312335968017578 32.87793731689453 6.05438232421875 C 34.61993789672852 7.796443939208984 35.98756790161133 9.824905395507812 36.94281387329102 12.08341312408447 C 37.93170928955078 14.42144393920898 38.43310928344727 16.90535163879395 38.43310928344727 19.46610450744629 L 38.43310928344727 101.5335083007812 C 38.43310928344727 104.0940475463867 37.93170928955078 106.577766418457 36.94281387329102 108.9156723022461 C 35.98756790161133 111.174072265625 34.61993789672852 113.2024459838867 32.87793731689453 114.9444427490234 C 31.13593864440918 116.6864471435547 29.10756874084473 118.0540618896484 26.84916877746582 119.0093078613281 C 24.51126098632812 119.9981994628906 22.02753829956055 120.4995956420898 19.46699905395508 120.4995956420898 Z" stroke="none"/>
      <path d="M 80.09010314941406 119.9996032714844 C 84.87398529052734 119.9996032714844 89.37155151367188 118.1366348266602 92.75430297851562 114.7538986206055 C 96.13703155517578 111.3711547851562 98 106.8735885620117 98 102.0896987915039 L 98 18.9099006652832 C 98 14.12595176696777 96.13703155517578 9.628217697143555 92.75426483154297 6.245234966278076 C 89.37146759033203 2.862218141555786 84.87391662597656 0.9991015195846558 80.09010314941406 0.9991015195846558 C 75.30628204345703 0.9991015195846558 70.80873107910156 2.862218141555786 67.42593383789062 6.245234966278076 C 64.04316711425781 9.628217697143555 62.18019866943359 14.12595176696777 62.18019866943359 18.9099006652832 L 62.18019866943359 102.0896987915039 C 62.18019866943359 106.8735885620117 64.04316711425781 111.3711547851562 67.4259033203125 114.7538986206055 C 70.80864715576172 118.1366348266602 75.30621337890625 119.9996032714844 80.09010314941406 119.9996032714844 M 19.46699905395508 119.9996032714844 C 24.39931678771973 119.9996032714844 29.0365161895752 118.0787506103516 32.52438354492188 114.5908813476562 C 36.01224899291992 111.1030197143555 37.93310165405273 106.4658203125 37.93310165405273 101.5335006713867 L 37.93310165405273 19.46610069274902 C 37.93310165405273 14.53338527679443 36.01224899291992 9.895901679992676 32.52436828613281 6.407917976379395 C 29.03655052185059 2.919984817504883 24.39934921264648 0.9991015195846558 19.46699905395508 0.9991015195846558 C 14.53425025939941 0.9991015195846558 9.896766662597656 2.92000150680542 6.408833503723145 6.407934665679932 C 2.920900106430054 9.895868301391602 1 14.53335189819336 1 19.46610069274902 L 1 101.5335006713867 C 1 106.4658508300781 2.920883417129517 111.1030502319336 6.408816814422607 114.5908660888672 C 9.89680004119873 118.0787506103516 14.53428363800049 119.9996032714844 19.46699905395508 119.9996032714844 M 80.09010314941406 120.9996032714844 C 69.64649963378906 120.9996032714844 61.18019866943359 112.5333023071289 61.18019866943359 102.0896987915039 L 61.18019866943359 18.9099006652832 C 61.18019866943359 8.466301918029785 69.64649963378906 -0.0008984985179267824 80.09010314941406 -0.0008984985179267824 C 90.53369903564453 -0.0008984985179267824 99 8.466301918029785 99 18.9099006652832 L 99 102.0896987915039 C 99 112.5333023071289 90.53369903564453 120.9996032714844 80.09010314941406 120.9996032714844 Z M 19.46699905395508 120.9996032714844 C 8.71560001373291 120.9996032714844 0 112.2840042114258 0 101.5335006713867 L 0 19.46610069274902 C 0 8.714701652526855 8.71560001373291 -0.0008984985179267824 19.46699905395508 -0.0008984985179267824 C 30.21750068664551 -0.0008984985179267824 38.93310165405273 8.714701652526855 38.93310165405273 19.46610069274902 L 38.93310165405273 101.5335006713867 C 38.93310165405273 112.2840042114258 30.21750068664551 120.9996032714844 19.46699905395508 120.9996032714844 Z" stroke="none" fill="#707070"/>
    </g>
  </g>
</svg>