<svg xmlns="http://www.w3.org/2000/svg" width="486.6" height="338.964" viewBox="0 0 486.6 338.964">
  <g id="Group_2" data-name="Group 2" transform="translate(-1260.535 -447.535)">
    <path id="Exclusion_1" data-name="Exclusion 1" d="M439.6,333.964H42a41.966,41.966,0,0,1-42-42V86.8a41.965,41.965,0,0,1,42-42H96.727V31a30.975,30.975,0,0,1,31-31H353.873a30.974,30.974,0,0,1,31,31V44.8H439.6a41.964,41.964,0,0,1,42,42V111.49h0V291.964a41.965,41.965,0,0,1-42,42ZM133.146,17.309a13.015,13.015,0,0,0-13,13V44.8H361.454V30.309a13.015,13.015,0,0,0-13-13Z" transform="translate(1263.035 450.035)" fill="#9694bc" stroke="#000" stroke-width="5"/>
    <g id="Ellipse_34" data-name="Ellipse 34" transform="translate(1619.398 524.362)" fill="#dfec2a" stroke="#707070" stroke-width="4">
      <circle cx="10.691" cy="10.691" r="10.691" stroke="none"/>
      <circle cx="10.691" cy="10.691" r="8.691" fill="none"/>
    </g>
    <circle id="Ellipse_35" data-name="Ellipse 35" cx="12.218" cy="12.218" r="12.218" transform="translate(1686.599 521.307)"/>
    <circle id="Ellipse_36" data-name="Ellipse 36" cx="12.218" cy="12.218" r="12.218" transform="translate(1652.998 521.307)"/>
    <circle id="Ellipse_37" data-name="Ellipse 37" cx="12.218" cy="12.218" r="12.218" transform="translate(1619.398 521.307)"/>
    <g id="Rectangle_41" data-name="Rectangle 41" transform="translate(1296.635 521.307)" fill="#9a6de9" stroke="#000" stroke-width="4">
      <rect width="122.182" height="24.436" rx="11" stroke="none"/>
      <rect x="2" y="2" width="118.182" height="20.436" rx="9" fill="none"/>
    </g>
    <g id="Ellipse_38" data-name="Ellipse 38" transform="translate(1296.635 601.744)" fill="#9a6de9" stroke="#000" stroke-width="4">
      <circle cx="66.691" cy="66.691" r="66.691" stroke="none"/>
      <circle cx="66.691" cy="66.691" r="64.691" fill="none"/>
    </g>
    <g id="Ellipse_39" data-name="Ellipse 39" transform="translate(1577.653 605.817)" fill="#9a6de9" stroke="#000" stroke-width="4">
      <circle cx="66.691" cy="66.691" r="66.691" stroke="none"/>
      <circle cx="66.691" cy="66.691" r="64.691" fill="none"/>
    </g>
    <g id="Rectangle_42" data-name="Rectangle 42" transform="translate(1463.616 632.289)" fill="#441b8a" stroke="#000" stroke-width="4">
      <rect width="80.436" height="80.436" rx="11" stroke="none"/>
      <rect x="2" y="2" width="76.436" height="76.436" rx="9" fill="none"/>
    </g>
    <g id="Ellipse_40" data-name="Ellipse 40" transform="translate(1343.471 648.58)" fill="#fff" stroke="#000" stroke-width="4">
      <circle cx="20.364" cy="20.364" r="20.364" stroke="none"/>
      <circle cx="20.364" cy="20.364" r="18.364" fill="none"/>
    </g>
    <g id="Ellipse_41" data-name="Ellipse 41" transform="translate(1624.489 652.653)" fill="#fff" stroke="#000" stroke-width="4">
      <circle cx="20.364" cy="20.364" r="20.364" stroke="none"/>
      <circle cx="20.364" cy="20.364" r="18.364" fill="none"/>
    </g>
    <g id="Rectangle_43" data-name="Rectangle 43" transform="translate(1463.616 632.289)" fill="#9a6de9" stroke="#000" stroke-width="4">
      <rect width="80.436" height="32.582" rx="11" stroke="none"/>
      <rect x="2" y="2" width="76.436" height="28.582" rx="9" fill="none"/>
    </g>
  </g>
</svg>