<svg xmlns="http://www.w3.org/2000/svg" width="1920" height="1080" viewBox="0 0 1920 1080">
  <g id="Path_4" data-name="Path 4">
    <path d="M 1919.5 1079.5 L 0.5 1079.5 L 0.5 0.5 L 1919.5 0.5 L 1919.5 1079.5 Z" stroke="none"/>
    <path d="M 1 1 L 1 1079 L 1919 1079 L 1919 1 L 1 1 M 0 0 L 1920 0 L 1920 1080 L 0 1080 L 0 0 Z" stroke="none" fill="#362b2b"/>
  </g>
  <path id="Intersection_4" data-name="Intersection 4" d="M3154.878,1959.938c-395.143-241.015-448.055-770.845-652.185-592.886-204.917,178.647-608.186-355.979-608.186-355.979s-413.306,191.521-561.42,147.633V880.938h1919v1079Z" transform="translate(-1333.087 -880.438)" fill="#9a6de9"/>
  <path id="Intersection_2" data-name="Intersection 2" d="M3159.482,1962.724c-399.328-239.693-451.872-774.319-656.789-595.672-168.271,146.7-470.3-187.579-572.941-311.828H3230.891v967.921ZM1311.891,1149.7v-94.472h479.593c-112.48,45.557-291.665,110.014-405.062,110.014C1355.984,1165.238,1330.289,1160.6,1311.891,1149.7Z" transform="translate(-1311.891 -1054.724)" fill="#571cbe"/>
  <path id="Intersection_1" data-name="Intersection 1" d="M2743.106,1367.053c-102.709,89.542-255.267-.123-381.882-111.829H3200.5v539.265C2973.973,1540.117,2907.663,1223.593,2743.106,1367.053Z" transform="translate(-1281.5 -1254.724)" fill="#441b8a"/>
</svg>