<svg xmlns="http://www.w3.org/2000/svg" width="1280" height="800" viewBox="0 0 1280 800">
  <g id="Intersection_9" data-name="Intersection 9" transform="translate(1145 616)" fill="#9a6de9">
    <path d="M 134.5000610351562 183.4996490478516 L -1144.5 183.4996490478516 L -1144.5 -612.4998779296875 L 134.5000610351562 -612.4998779296875 L 134.5000610351562 183.4996490478516 Z" stroke="none"/>
    <path d="M 134.0000610351562 182.9996490478516 L 134.0000610351562 -611.9998779296875 L -1144 -611.9998779296875 L -1144 182.9996490478516 L 134.0000610351562 182.9996490478516 M 135.0000610351562 183.9996490478516 L -1145 183.9996490478516 L -1145 -612.9998779296875 L 135.0000610351562 -612.9998779296875 L 135.0000610351562 183.9996490478516 Z" stroke="none" fill="#707070"/>
  </g>
  <path id="Intersection_5" data-name="Intersection 5" d="M-580.283-351.7a116.227,116.227,0,0,1-28.136-12.31,167.9,167.9,0,0,1-28.725-22.134,276.724,276.724,0,0,1-29.5-33.278c-44.683-58.621-114.99-88.342-208.969-88.342-29.248,0-60.83,2.939-93.866,8.735a752.446,752.446,0,0,0-81.486,19.22c-47.156,13.846-78.87,27.817-79.185,27.957l-58.361,30.126-.04,0c-1.24.061-5.828.284-12.093.575v-156.1h1279v129.634c-9.466,31.805-18.982,54.406-29.044,69-5.033,7.3-10.127,12.541-15.572,16.015A29.529,29.529,0,0,1,17.452-357.7h-.014c-9.308,0-19.633-4.168-32.491-13.118-11.626-8.094-24.389-19.46-37.9-31.494-21.407-19.064-45.669-40.672-74.156-57.569-32.943-19.54-65.393-29.039-99.2-29.039a187.405,187.405,0,0,0-25.724,1.8,207.655,207.655,0,0,0-24.854,5.063,269.2,269.2,0,0,0-47.375,17.907c-30.644,14.728-59.5,34.116-87.4,52.867l-.011.007c-24.646,16.564-47.927,32.207-71.237,43.962a205.351,205.351,0,0,1-34.833,14.119,122.842,122.842,0,0,1-34.8,5.3l0,0A102.62,102.62,0,0,1-580.283-351.7Z" transform="translate(1201.143 577.75)" fill="#441b8a" stroke="#707070" stroke-width="1"/>
  <path id="Intersection_6" data-name="Intersection 6" d="M-567.665-441.474a41.046,41.046,0,0,1-15.054-4.052,79.562,79.562,0,0,1-14.809-9.277c-9.829-7.561-19.433-17.327-29.6-27.667l-.005-.006c-12.628-12.84-25.686-26.119-39.509-35.191-37.147-24.376-92.408-38.83-164.253-42.961-14.233-.819-29.3-1.234-44.773-1.234-29.231,0-60.8,1.471-93.826,4.37-26.42,2.32-53.832,5.556-81.471,9.616-47.146,6.926-78.869,13.917-79.184,13.987l-58.361,15.07h-.04c-1.24.03-5.828.142-12.093.287V-615.5h1279v83.728c-9.466,15.909-18.982,27.214-29.044,34.515a54.413,54.413,0,0,1-15.572,8.011,52.8,52.8,0,0,1-16.289,2.453h-.014c-9.308,0-19.633-2.084-32.491-6.562-11.626-4.048-24.389-9.733-37.9-15.753-21.407-9.536-45.669-20.345-74.156-28.8a343.867,343.867,0,0,0-99.2-14.525,244.408,244.408,0,0,0-26.109,1.418c-8.294.895-16.8,2.237-25.29,3.992A331.629,331.629,0,0,0-326.082-532.9c-31.344,11.61-60.967,26.9-89.615,41.678-25.311,13.061-49.217,25.4-73.082,34.667a250.619,250.619,0,0,1-35.588,11.132,176.6,176.6,0,0,1-17.7,3.091,148.328,148.328,0,0,1-17.692,1.09h0C-562.415-441.246-565.074-441.323-567.665-441.474Z" transform="translate(1201.143 616)"/>
  <path id="Intersection_8" data-name="Intersection 8" d="M-477.961,183.5c104.194-106.97,27.513-106.854,156.708-65.3,78.006,25.089,88.026-22.193,96.706-69.475,7.569-41.233,14.117-82.466,63.844-75.7,106.748,14.518,46.969-64.9,125.536-84.545,9.864-2.466,18.36.874,25.667,8.594V183.5Z" transform="translate(1289 616)"/>
  <path id="Intersection_7" data-name="Intersection 7" d="M-410.174,183.5c52.848-67.559,11.472-62.5,122.707-26.727,78.006,25.089,88.025-22.193,96.705-69.475,7.569-41.233,14.117-82.466,63.844-75.7C-24.091,25.579-75.784-47.6-9.5-70.549V183.5Z" transform="translate(1289 616)" fill="#441b8a"/>
</svg>